<?xml version="1.0" encoding="UTF-8" standalone="no"?>
<!-- Created with Inkscape (http://www.inkscape.org/) -->

<svg
   xmlns:dc="http://purl.org/dc/elements/1.1/"
   xmlns:cc="http://creativecommons.org/ns#"
   xmlns:rdf="http://www.w3.org/1999/02/22-rdf-syntax-ns#"
   xmlns:svg="http://www.w3.org/2000/svg"
   xmlns="http://www.w3.org/2000/svg"
   xmlns:sodipodi="http://sodipodi.sourceforge.net/DTD/sodipodi-0.dtd"
   xmlns:inkscape="http://www.inkscape.org/namespaces/inkscape"
   width="1144"
   height="1144"
   id="svg3969"
   version="1.1"
   inkscape:version="0.48.3.1 r9886"
   sodipodi:docname="logotipo-144x144.svg">
  <defs
     id="defs3971" />
  <sodipodi:namedview
     id="base"
     pagecolor="#ffffff"
     bordercolor="#666666"
     borderopacity="1.0"
     inkscape:pageopacity="0"
     inkscape:pageshadow="2"
     inkscape:zoom="2.75"
     inkscape:cx="263.85983"
     inkscape:cy="174.95971"
     inkscape:current-layer="g5098"
     showgrid="true"
     inkscape:document-units="px"
     inkscape:grid-bbox="true"
     inkscape:window-width="1366"
     inkscape:window-height="722"
     inkscape:window-x="0"
     inkscape:window-y="24"
     inkscape:window-maximized="1" />
  <metadata
     id="metadata3974">
    <rdf:RDF>
      <cc:Work
         rdf:about="">
        <dc:format>image/svg+xml</dc:format>
        <dc:type
           rdf:resource="http://purl.org/dc/dcmitype/StillImage" />
        <dc:title></dc:title>
      </cc:Work>
    </rdf:RDF>
  </metadata>
  <g
     id="layer1"
     inkscape:label="Layer 1"
     inkscape:groupmode="layer"
     transform="translate(0,1080)">
    <g
       id="g5098"
       transform="matrix(1,0,0,1.0063088,0,1.2617798)"
       inkscape:export-filename="C:\Users\sejas\Downloads\messic-master\messic-master\resources\images\logo-messic\logotipo-120x120.png"
       inkscape:export-xdpi="93.09832"
       inkscape:export-ydpi="93.09832">
      <path
         inkscape:export-ydpi="99.400993"
         inkscape:export-xdpi="99.400993"
         inkscape:export-filename="C:\Users\sejas\Downloads\messic-master\messic-master\resources\images\logo-messic\logotipo-128x128.png"
         inkscape:connector-curvature="0"
         id="path3820"
         d="m 289.7522,-200.00315 c -17.80574,0 -32.22246,15.53945 -32.22246,34.68767 0,3.92818 0.61331,7.6958 1.73275,11.2161 -0.018,0.0163 -0.0487,0.0195 -0.0666,0.0359 -14.51096,3.57014 -25.32478,17.53436 -25.32478,34.22173 0,19.39058 14.59123,35.117692 32.62232,35.117692 10.17052,0 19.27032,-5.024154 25.25814,-12.864529 0.0442,-10e-4 0.0891,0.0011 0.13329,0 5.98755,7.840864 15.05387,12.864529 25.22482,12.864529 18.03109,0 32.65564,-15.727112 32.65564,-35.117692 0,-18.14198 -12.80809,-33.05546 -29.22347,-34.90263 -0.0188,-0.0163 -0.0478,-0.0196 -0.0666,-0.0359 0.98486,-3.32328 1.53281,-6.86096 1.53281,-10.53521 0,-19.14823 -14.45006,-34.68767 -32.25577,-34.68767 z"
         style="fill:#00293a;fill-opacity:1;fill-rule:nonzero;stroke:none" />
      <path
         inkscape:export-ydpi="99.400993"
         inkscape:export-xdpi="99.400993"
         inkscape:export-filename="C:\Users\sejas\Downloads\messic-master\messic-master\resources\images\logo-messic\logotipo-128x128.png"
         inkscape:connector-curvature="0"
         id="path3800"
         d="m 289.61218,-194.4586 c -16.08957,0 -29.13654,14.0224 -29.13654,31.32499 0,3.56026 0.54935,6.98536 1.56673,10.17456 21.0987,14.14693 38.14791,-2.47801 55.32217,-0.62162 0.8955,-3.01149 1.37659,-6.22186 1.37659,-9.55294 0,-17.30259 -13.0394,-31.32499 -29.12895,-31.32499 z"
         style="fill:#89ff00;fill-opacity:1;fill-rule:nonzero;stroke:none" />
      <path
         inkscape:export-ydpi="99.400993"
         inkscape:export-xdpi="99.400993"
         inkscape:export-filename="C:\Users\sejas\Downloads\messic-master\messic-master\resources\images\logo-messic\logotipo-128x128.png"
         inkscape:connector-curvature="0"
         id="path3798"
         d="m 317.36454,-153.58067 c -21.47023,12.82302 -14.29224,35.20594 -25.91183,51.60865 5.40983,7.125753 13.64841,11.679444 22.86965,11.679444 16.2932,0 29.50159,-14.204224 29.50159,-31.725904 0,-16.41541 -11.59748,-29.92259 -26.45941,-31.56219 z"
         style="fill:#89ff00;fill-opacity:1;fill-rule:nonzero;stroke:none" />
      <path
         inkscape:export-filename="C:\Users\sejas\Downloads\messic-master\messic-master\resources\images\logo-messic\logotipo-128x128.png"
         inkscape:export-ydpi="99.400993"
         inkscape:export-xdpi="99.400993"
         inkscape:connector-curvature="0"
         id="path3783"
         d="m 291.45271,-101.97202 c -0.21552,-24.68365 -24.01632,-37.35511 -29.41034,-50.98703 -13.14151,3.2031 -22.95331,15.8394 -22.95331,30.94057 0,17.52168 13.20839,31.725904 29.50159,31.725904 9.22086,0 17.45221,-4.554148 22.86206,-11.679444 z"
         style="fill:#89ff00;fill-opacity:1;fill-rule:nonzero;stroke:none" />
    </g>
  </g>
</svg>
